<?xml version="1.0" encoding="utf-8"?>
<!-- Generator: Adobe Illustrator 26.0.1, SVG Export Plug-In . SVG Version: 6.00 Build 0)  -->
<svg version="1.1" id="Layer_1" xmlns="http://www.w3.org/2000/svg" xmlns:xlink="http://www.w3.org/1999/xlink" x="0px" y="0px"
	 viewBox="0 0 120 36" style="enable-background:new 0 0 120 36;" xml:space="preserve">
<style type="text/css">
	.st0{fill:#252525;}
	.st1{fill:#FFFFFF;}
</style>
<g>
	<g>
		<path class="st0" d="M4.55,16.89V4.57c0-0.47,0.51-0.76,0.91-0.53l10.66,6.16l10.66,6.16c0.41,0.23,0.41,0.82,0,1.06l-10.66,6.16
			L5.47,29.73c-0.41,0.23-0.91-0.06-0.91-0.53V16.89z"/>
	</g>
	<g>
		<path class="st1" d="M11.84,14.49l-5.51,2.88c-0.22,0.11-0.12,0.43,0.13,0.41l18.37-0.78c0.24-0.01,0.31-0.3,0.11-0.41L6.47,6.75
			C6.24,6.63,6,6.88,6.16,7.07l5.76,7.09C12,14.27,11.97,14.43,11.84,14.49z"/>
	</g>
</g>
<g>
	<path class="st0" d="M34.32,23.65h-1.76V9.51h5.3c2.72,0,4.51,1.67,4.51,4.21c0,1.97-1.07,3.5-2.84,4.06l3.27,5.87h-2.07
		l-3.03-5.59h-3.38V23.65z M34.32,16.5h3.38c1.81,0,2.84-0.98,2.84-2.71c0-1.69-1.1-2.7-2.92-2.7h-3.3V16.5z"/>
	<path class="st0" d="M52.74,20.73c-0.29,1.78-2.02,3.1-4.24,3.1c-2.92,0-4.69-2.03-4.69-5.23c0-3.16,1.8-5.31,4.61-5.31
		c2.75,0,4.45,2,4.45,5.08v0.65h-7.31v0.1c0,1.95,1.15,3.23,2.98,3.23c1.29,0,2.24-0.66,2.53-1.62H52.74z M45.57,17.68h5.53
		c-0.04-1.7-1.11-2.92-2.71-2.92C46.8,14.76,45.68,15.99,45.57,17.68z"/>
	<path class="st0" d="M61.38,16.8c-0.24-1.11-1.11-2.02-2.61-2.02c-1.76,0-2.96,1.46-2.96,3.77c0,2.37,1.21,3.77,2.98,3.77
		c1.39,0,2.3-0.73,2.6-1.96h1.67c-0.26,2.03-1.97,3.46-4.28,3.46c-2.82,0-4.7-1.99-4.7-5.27c0-3.21,1.87-5.27,4.68-5.27
		c2.55,0,4.06,1.68,4.28,3.52H61.38z"/>
	<path class="st0" d="M64.22,20.77c0-1.74,1.34-2.84,3.69-2.98l2.92-0.17v-0.85c0-1.24-0.82-1.99-2.23-1.99
		c-1.31,0-2.14,0.62-2.35,1.62H64.6c0.12-1.76,1.63-3.11,4.04-3.11c2.39,0,3.9,1.29,3.9,3.32v7.04h-1.62V21.9h-0.04
		c-0.61,1.17-1.9,1.93-3.27,1.93C65.58,23.83,64.22,22.6,64.22,20.77z M70.83,19.78v-0.83l-2.72,0.17c-1.37,0.09-2.15,0.7-2.15,1.66
		c0,0.97,0.81,1.61,2.04,1.61C69.6,22.38,70.83,21.25,70.83,19.78z"/>
	<path class="st0" d="M74.7,13.46h1.61v1.67h0.04c0.33-1.13,1.27-1.84,2.47-1.84c0.29,0,0.55,0.05,0.69,0.07v1.66
		c-0.14-0.05-0.5-0.1-0.91-0.1c-1.32,0-2.18,0.95-2.18,2.39v6.35h-1.7V13.46z"/>
	<path class="st0" d="M80.29,24.49h1.75c0.33,0.93,1.34,1.55,2.62,1.55c1.76,0,2.83-1.02,2.83-2.54V21.9h-0.04
		c-0.63,1.11-1.83,1.83-3.26,1.83c-2.6,0-4.3-2.05-4.3-5.21c0-3.19,1.7-5.23,4.34-5.23c1.44,0,2.63,0.71,3.31,1.89h0.03v-1.71h1.63
		v9.98c0,2.43-1.79,4.05-4.6,4.05C82.35,27.49,80.58,26.22,80.29,24.49z M87.49,18.52c0-2.24-1.19-3.73-2.96-3.73
		c-1.75,0-2.9,1.45-2.9,3.73c0,2.28,1.15,3.71,2.9,3.71C86.31,22.23,87.49,20.76,87.49,18.52z"/>
	<path class="st0" d="M91,20.77c0-1.74,1.34-2.84,3.69-2.98l2.92-0.17v-0.85c0-1.24-0.82-1.99-2.23-1.99
		c-1.31,0-2.14,0.62-2.35,1.62h-1.65c0.12-1.76,1.63-3.11,4.04-3.11c2.39,0,3.9,1.29,3.9,3.32v7.04H97.7V21.9h-0.04
		c-0.61,1.17-1.9,1.93-3.27,1.93C92.36,23.83,91,22.6,91,20.77z M97.61,19.78v-0.83l-2.72,0.17c-1.37,0.09-2.15,0.7-2.15,1.66
		c0,0.97,0.81,1.61,2.04,1.61C96.38,22.38,97.61,21.25,97.61,19.78z"/>
</g>
<g>
	<path class="st0" d="M102.43,22.1h-2.24l-0.86,1.55h-1.16l3.45-6.06h1.23l0.84,6.06h-1.07L102.43,22.1z M100.63,21.24h1.72
		l-0.31-2.54h-0.02L100.63,21.24z"/>
	<path class="st0" d="M103.89,25.12l1.26-5.93h1.01l-0.15,0.68h0.02c0.3-0.47,0.83-0.76,1.4-0.76c0.98,0,1.59,0.72,1.59,1.84
		c0,1.59-0.95,2.76-2.21,2.76c-0.67,0-1.2-0.37-1.37-0.93h-0.03l-0.5,2.33H103.89z M107.97,21.09c0-0.69-0.35-1.11-0.93-1.11
		c-0.81,0-1.36,0.84-1.36,1.8c0,0.63,0.38,1.07,0.97,1.07C107.4,22.84,107.97,22.1,107.97,21.09z"/>
	<path class="st0" d="M108.9,25.12l1.26-5.93h1.01l-0.15,0.68h0.02c0.3-0.47,0.83-0.76,1.4-0.76c0.98,0,1.59,0.72,1.59,1.84
		c0,1.59-0.95,2.76-2.21,2.76c-0.67,0-1.2-0.37-1.37-0.93h-0.03l-0.5,2.33H108.9z M112.98,21.09c0-0.69-0.35-1.11-0.93-1.11
		c-0.81,0-1.36,0.84-1.36,1.8c0,0.63,0.38,1.07,0.97,1.07C112.41,22.84,112.98,22.1,112.98,21.09z"/>
	<path class="st0" d="M114.24,23.08c0-0.34,0.27-0.61,0.6-0.61c0.34,0,0.6,0.27,0.6,0.61c0,0.34-0.27,0.62-0.6,0.62
		C114.51,23.69,114.24,23.42,114.24,23.08z"/>
</g>
</svg>
