<svg width="40" height="22" viewBox="0 0 40 22" fill="none" xmlns="http://www.w3.org/2000/svg">
<g id="Group 45">
<path id="Vector" fill-rule="evenodd" clip-rule="evenodd" d="M7.07309 2.07231C8.31201 0.765179 9.95522 0 11.8861 0C15.6475 0 18.1415 2.75935 18.619 6.8928C18.774 8.23465 18.7728 10.1284 18.7703 12.3197C18.7703 12.5442 18.7703 12.7724 18.7703 13.0031V21.2154H13.5976V15.1411C13.5976 15.1411 13.5876 9.94235 13.5554 8.97131C13.4165 4.73989 10.9238 2.08099 7.07185 2.07851C5.90982 3.31247 5.28726 4.81926 5.19549 7.12595C5.18309 7.44715 5.18557 8.58686 5.19053 10.0899C5.19301 10.8688 5.19549 11.7443 5.19549 12.6533C5.19921 16.6119 5.19549 21.2166 5.19549 21.2166H0.0227908V11.8696C0.0227908 11.5496 0.0165905 11.2259 0.0116298 10.9022C0.000468419 10.2499 -0.0119336 9.59263 0.0227908 8.94155C0.0810783 7.85641 0.268342 6.78987 0.771847 5.79898C1.92519 3.52949 4.28894 2.06735 6.80894 2.06735C6.89823 2.06611 6.98628 2.06859 7.07309 2.07231Z" fill="white"/>
<path id="Vector_2" fill-rule="evenodd" clip-rule="evenodd" d="M39.1584 12.7781C39.1932 12.127 39.182 11.4697 39.1696 10.8174C39.1634 10.4937 39.1584 10.17 39.1584 9.85008V0.503009H33.9857C33.9857 0.503009 33.982 5.10772 33.9857 9.0663C33.987 9.97534 33.9882 10.8521 33.9907 11.6297C33.9944 13.1315 33.9981 14.2725 33.9857 14.5937C33.894 16.8991 33.2714 18.4072 32.1094 19.6399C28.2587 19.6374 25.7647 16.9785 25.6258 12.7471C25.5936 11.7761 25.5812 9.36518 25.5812 6.57234V0.498047L20.4122 0.503009V8.71534C20.4122 8.94601 20.4122 9.1742 20.4122 9.39867C20.411 11.5913 20.4097 13.4838 20.5635 14.8256C21.0397 18.9591 23.5337 21.7184 27.2951 21.7184C29.226 21.7184 30.8692 20.9545 32.1081 19.6461C32.195 19.6498 32.283 19.6511 32.3711 19.6511C34.8911 19.6511 37.2548 18.1889 38.4082 15.9194C38.9141 14.9298 39.1014 13.8632 39.1584 12.7781Z" fill="white"/>
</g>
</svg>
