<svg width="60" height="20" viewBox="0 0 60 20" fill="none" xmlns="http://www.w3.org/2000/svg">
<g id="picpay 1" clip-path="url(#clip0_686_252)">
<path id="Vector" d="M12.336 15.63H15.144V7.452H12.336V15.63ZM16.11 1.89H14.22V3.78H16.11V1.89ZM5.514 2.808H2.808V5.178H5.322C6.918 5.178 7.836 5.952 7.836 7.404C7.836 8.856 6.918 9.678 5.322 9.678H2.808V5.226H0V15.63H2.808V12.048H5.472C8.712 12.048 10.602 10.308 10.602 7.308C10.596 4.5 8.76 2.808 5.514 2.808ZM18 0H12.336V5.664H18V0ZM17.082 4.692H13.308V0.918H17.082V4.692ZM33.534 2.808H30.972V5.178H33.39C34.986 5.178 35.904 5.952 35.904 7.404C35.904 8.856 34.986 9.678 33.39 9.678H30.972V5.226H28.164V15.63H30.972V12.048H33.534C36.774 12.048 38.664 10.308 38.664 7.308C38.664 4.5 36.774 2.808 33.534 2.808ZM57.096 5.808L54.678 11.904L52.26 5.808H49.356L53.226 15.63L51.726 19.356H54.678L60 5.808H57.096ZM44.514 5.76C42.822 5.76 41.514 6.15 40.062 6.87L40.932 8.808C41.946 8.226 42.966 7.938 43.884 7.938C45.24 7.938 45.918 8.52 45.918 9.582V9.774H43.206C40.788 9.774 39.48 10.884 39.48 12.726C39.48 14.514 40.74 15.774 42.87 15.774C44.226 15.774 45.192 15.288 45.966 14.466V15.528H48.726V9.144C48.63 7.062 47.13 5.76 44.514 5.76ZM46.164 12.336C45.876 13.158 45.054 13.836 43.89 13.836C42.924 13.836 42.342 13.35 42.342 12.576C42.342 11.802 42.876 11.466 43.938 11.466H46.164V12.336ZM22.308 13.5C20.952 13.5 19.986 12.438 19.986 10.836C19.986 9.288 20.952 8.226 22.308 8.226C23.274 8.226 24 8.616 24.534 9.288L26.424 7.932C25.554 6.624 24.054 5.85 22.164 5.85C19.212 5.802 17.178 7.836 17.178 10.836C17.178 13.836 19.212 15.822 22.164 15.822C24.198 15.822 25.698 15 26.52 13.644L24.582 12.336C24.096 13.11 23.322 13.5 22.308 13.5Z" fill="white"/>
</g>
<defs>
<clipPath id="clip0_686_252">
<rect width="60" height="19.356" fill="white"/>
</clipPath>
</defs>
</svg>
