<svg width="120" height="36" viewBox="0 0 120 36" fill="none" xmlns="http://www.w3.org/2000/svg">
<path d="M4.55005 16.89V4.56998C4.55005 4.09998 5.06005 3.80998 5.46005 4.03998L16.12 10.2L26.78 16.36C27.19 16.59 27.19 17.18 26.78 17.42L16.12 23.58L5.47005 29.73C5.06005 29.96 4.56005 29.67 4.56005 29.2V16.89H4.55005Z" fill="#252525"/>
<path d="M11.8401 14.49L6.33008 17.37C6.11008 17.48 6.21008 17.8 6.46008 17.78L24.8301 17C25.0701 16.99 25.1401 16.7 24.9401 16.59L6.47008 6.74997C6.24008 6.62997 6.00008 6.87997 6.16008 7.06997L11.9201 14.16C12.0001 14.27 11.9701 14.43 11.8401 14.49Z" fill="white"/>
<path d="M34.3201 23.65H32.5601V9.51001H37.8601C40.5801 9.51001 42.3701 11.18 42.3701 13.72C42.3701 15.69 41.3001 17.22 39.5301 17.78L42.8001 23.65H40.7301L37.7001 18.06H34.3201V23.65ZM34.3201 16.5H37.7001C39.5101 16.5 40.5401 15.52 40.5401 13.79C40.5401 12.1 39.4401 11.09 37.6201 11.09H34.3201V16.5Z" fill="#252525"/>
<path d="M52.7401 20.73C52.4501 22.51 50.7201 23.83 48.5001 23.83C45.5801 23.83 43.8101 21.8 43.8101 18.6C43.8101 15.44 45.6101 13.29 48.4201 13.29C51.1701 13.29 52.8701 15.29 52.8701 18.37V19.02H45.5601V19.12C45.5601 21.07 46.7101 22.35 48.5401 22.35C49.8301 22.35 50.7801 21.69 51.0701 20.73H52.7401ZM45.5701 17.68H51.1001C51.0601 15.98 49.9901 14.76 48.3901 14.76C46.8001 14.76 45.6801 15.99 45.5701 17.68Z" fill="#252525"/>
<path d="M61.3801 16.8C61.1401 15.69 60.2701 14.78 58.7701 14.78C57.0101 14.78 55.8101 16.24 55.8101 18.55C55.8101 20.92 57.0201 22.32 58.7901 22.32C60.1801 22.32 61.0901 21.59 61.3901 20.36H63.0601C62.8001 22.39 61.0901 23.82 58.7801 23.82C55.9601 23.82 54.0801 21.83 54.0801 18.55C54.0801 15.34 55.9501 13.28 58.7601 13.28C61.3101 13.28 62.8201 14.96 63.0401 16.8H61.3801Z" fill="#252525"/>
<path d="M64.2201 20.77C64.2201 19.03 65.5601 17.93 67.9101 17.79L70.8301 17.62V16.77C70.8301 15.53 70.0101 14.78 68.6001 14.78C67.2901 14.78 66.4601 15.4 66.2501 16.4H64.6001C64.7201 14.64 66.2301 13.29 68.6401 13.29C71.0301 13.29 72.5401 14.58 72.5401 16.61V23.65H70.9201V21.9H70.8801C70.2701 23.07 68.9801 23.83 67.6101 23.83C65.5801 23.83 64.2201 22.6 64.2201 20.77ZM70.8301 19.78V18.95L68.1101 19.12C66.7401 19.21 65.9601 19.82 65.9601 20.78C65.9601 21.75 66.7701 22.39 68.0001 22.39C69.6001 22.38 70.8301 21.25 70.8301 19.78Z" fill="#252525"/>
<path d="M74.7001 13.46H76.3101V15.13H76.3501C76.6801 14 77.6201 13.29 78.8201 13.29C79.1101 13.29 79.3701 13.34 79.5101 13.36V15.02C79.3701 14.97 79.0101 14.92 78.6001 14.92C77.2801 14.92 76.4201 15.87 76.4201 17.31V23.66H74.7201V13.46H74.7001Z" fill="#252525"/>
<path d="M80.29 24.49H82.04C82.37 25.42 83.38 26.04 84.66 26.04C86.42 26.04 87.49 25.02 87.49 23.5V21.9H87.45C86.82 23.01 85.62 23.73 84.19 23.73C81.59 23.73 79.89 21.68 79.89 18.52C79.89 15.33 81.59 13.29 84.23 13.29C85.67 13.29 86.86 14 87.54 15.18H87.57V13.47H89.2V23.45C89.2 25.88 87.41 27.5 84.6 27.5C82.35 27.49 80.58 26.22 80.29 24.49ZM87.49 18.52C87.49 16.28 86.3 14.79 84.53 14.79C82.78 14.79 81.63 16.24 81.63 18.52C81.63 20.8 82.78 22.23 84.53 22.23C86.31 22.23 87.49 20.76 87.49 18.52Z" fill="#252525"/>
<path d="M91 20.77C91 19.03 92.34 17.93 94.69 17.79L97.61 17.62V16.77C97.61 15.53 96.79 14.78 95.38 14.78C94.07 14.78 93.24 15.4 93.03 16.4H91.38C91.5 14.64 93.01 13.29 95.42 13.29C97.81 13.29 99.32 14.58 99.32 16.61V23.65H97.7V21.9H97.66C97.05 23.07 95.76 23.83 94.39 23.83C92.36 23.83 91 22.6 91 20.77ZM97.61 19.78V18.95L94.89 19.12C93.52 19.21 92.74 19.82 92.74 20.78C92.74 21.75 93.55 22.39 94.78 22.39C96.38 22.38 97.61 21.25 97.61 19.78Z" fill="#252525"/>
<path d="M102.43 22.1H100.19L99.33 23.65H98.17L101.62 17.59H102.85L103.69 23.65H102.62L102.43 22.1ZM100.63 21.24H102.35L102.04 18.7H102.02L100.63 21.24Z" fill="#252525"/>
<path d="M103.89 25.12L105.15 19.19H106.16L106.01 19.87H106.03C106.33 19.4 106.86 19.11 107.43 19.11C108.41 19.11 109.02 19.83 109.02 20.95C109.02 22.54 108.07 23.71 106.81 23.71C106.14 23.71 105.61 23.34 105.44 22.78H105.41L104.91 25.11H103.89V25.12ZM107.97 21.09C107.97 20.4 107.62 19.98 107.04 19.98C106.23 19.98 105.68 20.82 105.68 21.78C105.68 22.41 106.06 22.85 106.65 22.85C107.4 22.84 107.97 22.1 107.97 21.09Z" fill="#252525"/>
<path d="M108.9 25.12L110.16 19.19H111.17L111.02 19.87H111.04C111.34 19.4 111.87 19.11 112.44 19.11C113.42 19.11 114.03 19.83 114.03 20.95C114.03 22.54 113.08 23.71 111.82 23.71C111.15 23.71 110.62 23.34 110.45 22.78H110.42L109.92 25.11H108.9V25.12ZM112.98 21.09C112.98 20.4 112.63 19.98 112.05 19.98C111.24 19.98 110.69 20.82 110.69 21.78C110.69 22.41 111.07 22.85 111.66 22.85C112.41 22.84 112.98 22.1 112.98 21.09Z" fill="#252525"/>
<path d="M114.24 23.08C114.24 22.74 114.51 22.47 114.84 22.47C115.18 22.47 115.44 22.74 115.44 23.08C115.44 23.42 115.17 23.7 114.84 23.7C114.51 23.69 114.24 23.42 114.24 23.08Z" fill="#252525"/>
</svg>
